<svg xmlns="http://www.w3.org/2000/svg" viewBox="0 0 156 45" width="156" height="45">
  <defs>
    <linearGradient id="nabersGrad" x1="0" y1="0" x2="0" y2="1">
      <stop offset="0%" stop-color="rgb(26,136,163)"></stop>
      <stop offset="100%" stop-color="rgb(25,106,137)"></stop>
    </linearGradient>
  </defs>
  <g fill="url(#nabersGrad)">
<svg x="44" y="30.69" width="11.478" height="12.604" viewBox="0 0 11.478 12.604" overflow="visible"><path d="M 0 1.118 C 0 0.515 0.508 0.018 1.167 0.018 L 1.411 0.018 C 1.976 0.018 2.296 0.284 2.616 0.657 L 9.201 8.698 L 9.201 1.065 C 9.201 0.479 9.709 0 10.33 0 C 10.97 0 11.478 0.479 11.478 1.065 L 11.478 11.503 C 11.478 12.107 10.989 12.586 10.349 12.586 L 10.255 12.586 C 9.709 12.586 9.371 12.32 9.051 11.929 L 2.277 3.657 L 2.277 11.538 C 2.277 12.124 1.769 12.604 1.148 12.604 C 0.508 12.604 0 12.124 0 11.538 L 0 1.118" fill-rule="evenodd"></path></svg>
<svg x="63.13" y="30.69" width="13.391" height="12.604" viewBox="0 0 13.391 12.604" overflow="visible"><path d="M 9.07 7.615 L 6.676 2.627 L 4.282 7.615 L 9.07 7.615 Z M 0.156 11.105 L 5.216 0.881 C 5.489 0.335 5.976 0 6.657 0 L 6.774 0 C 7.455 0 7.922 0.335 8.195 0.881 L 13.255 11.105 C 13.352 11.264 13.391 11.423 13.391 11.564 C 13.391 12.145 12.905 12.604 12.262 12.604 C 11.698 12.604 11.309 12.304 11.095 11.846 L 9.985 9.536 L 3.367 9.536 L 2.219 11.916 C 2.024 12.357 1.615 12.604 1.11 12.604 C 0.487 12.604 0 12.163 0 11.599 C 0 11.44 0.059 11.282 0.156 11.105 L 0.156 11.105 Z" fill-rule="evenodd"></path></svg>
<svg x="84.174" y="30.69" width="11.478" height="12.604" viewBox="0 0 11.478 12.604" overflow="visible"><path d="M 6.399 10.641 C 8.052 10.641 9.057 10.047 9.057 8.913 L 9.057 8.876 C 9.057 7.814 8.131 7.184 6.222 7.184 L 2.382 7.184 L 2.382 10.641 L 6.399 10.641 Z M 5.69 5.312 C 7.245 5.312 8.289 4.753 8.289 3.601 L 8.289 3.565 C 8.289 2.575 7.422 1.962 5.867 1.962 L 2.382 1.962 L 2.382 5.312 L 5.69 5.312 Z M 0 1.116 C 0 0.486 0.532 0 1.221 0 L 6.182 0 C 7.757 0 8.998 0.396 9.785 1.116 C 10.395 1.674 10.71 2.359 10.71 3.205 L 10.71 3.241 C 10.71 4.753 9.765 5.564 8.742 6.05 C 10.356 6.554 11.478 7.4 11.478 9.111 L 11.478 9.147 C 11.478 11.397 9.45 12.604 6.379 12.604 L 1.221 12.604 C 0.532 12.604 0 12.118 0 11.487 L 0 1.116 L 0 1.116 Z" fill-rule="evenodd"></path></svg>
<svg x="103.304" y="30.69" width="9.565" height="12.604" viewBox="0 0 9.565 12.604" overflow="visible"><path d="M 0 11.487 L 0 1.116 C 0 0.486 0.488 0 1.121 0 L 8.48 0 C 9.023 0 9.475 0.45 9.475 0.99 C 9.475 1.548 9.023 1.98 8.48 1.98 L 2.224 1.98 L 2.224 5.257 L 7.667 5.257 C 8.209 5.257 8.661 5.707 8.661 6.266 C 8.661 6.806 8.209 7.238 7.667 7.238 L 2.224 7.238 L 2.224 10.623 L 8.571 10.623 C 9.113 10.623 9.565 11.073 9.565 11.613 C 9.565 12.171 9.113 12.604 8.571 12.604 L 1.121 12.604 C 0.488 12.604 0 12.118 0 11.487" fill-rule="evenodd"></path></svg>
<svg x="122.435" y="30.69" width="11.478" height="12.604" viewBox="0 0 11.478 12.604" overflow="visible"><path d="M 6.08 6.203 C 7.846 6.203 8.97 5.381 8.97 4.112 L 8.97 4.076 C 8.97 2.735 7.886 2.002 6.06 2.002 L 2.468 2.002 L 2.468 6.203 L 6.08 6.203 Z M 0 1.108 C 0 0.483 0.542 0 1.244 0 L 6.261 0 C 8.027 0 9.411 0.465 10.314 1.251 C 11.057 1.931 11.478 2.86 11.478 3.951 L 11.478 3.987 C 11.478 5.989 10.174 7.205 8.287 7.723 L 10.977 10.744 C 11.217 11.013 11.378 11.245 11.378 11.585 C 11.378 12.193 10.796 12.604 10.194 12.604 C 9.632 12.604 9.271 12.371 8.99 12.032 L 5.579 8.152 L 2.468 8.152 L 2.468 11.513 C 2.468 12.121 1.926 12.604 1.244 12.604 C 0.542 12.604 0 12.121 0 11.513 L 0 1.108 L 0 1.108 Z" fill-rule="evenodd"></path></svg>
<svg x="141.565" y="30.69" width="9.565" height="12.604" viewBox="0 0 9.565 12.604" overflow="visible"><path d="M 0.428 11.063 C 0.178 10.888 0 10.59 0 10.24 C 0 9.68 0.463 9.243 1.033 9.243 C 1.336 9.243 1.532 9.33 1.675 9.435 C 2.708 10.24 3.812 10.696 5.166 10.696 C 6.52 10.696 7.375 10.065 7.375 9.155 L 7.375 9.12 C 7.375 8.245 6.876 7.772 4.56 7.247 C 1.906 6.617 0.41 5.847 0.41 3.588 L 0.41 3.554 C 0.41 1.453 2.191 0 4.667 0 C 6.235 0 7.499 0.403 8.622 1.138 C 8.871 1.278 9.103 1.575 9.103 1.996 C 9.103 2.556 8.639 2.993 8.07 2.993 C 7.856 2.993 7.678 2.941 7.499 2.836 C 6.538 2.223 5.611 1.908 4.631 1.908 C 3.349 1.908 2.601 2.556 2.601 3.361 L 2.601 3.396 C 2.601 4.341 3.171 4.761 5.576 5.322 C 8.212 5.952 9.565 6.879 9.565 8.91 L 9.565 8.945 C 9.565 11.238 7.731 12.604 5.113 12.604 C 3.42 12.604 1.817 12.078 0.428 11.063" fill-rule="evenodd"></path></svg>
<svg x="15.304" y="1.882" width="17.217" height="19.806" viewBox="0 0 17.217 19.806" overflow="visible"><path d="M 12.25 9.903 C 12.25 9.537 12.572 9.132 12.799 8.927 C 13.026 8.723 17.217 4.951 17.217 4.951 C 17.217 4.951 11.858 6.677 11.551 6.776 C 11.244 6.874 10.77 6.958 10.429 6.762 C 10.111 6.579 9.92 6.098 9.856 5.8 C 9.792 5.502 8.609 0 8.609 0 C 8.609 0 7.429 5.486 7.361 5.8 C 7.294 6.115 7.13 6.565 6.788 6.762 C 6.47 6.945 5.957 6.869 5.666 6.775 C 5.375 6.682 0 4.951 0 4.951 C 0 4.951 4.179 8.712 4.419 8.928 C 4.658 9.143 4.968 9.51 4.968 9.903 C 4.968 10.269 4.646 10.674 4.418 10.878 C 4.191 11.082 0 14.854 0 14.854 C 0 14.854 5.359 13.129 5.666 13.03 C 5.973 12.931 6.447 12.848 6.788 13.044 C 7.107 13.227 7.297 13.707 7.361 14.005 C 7.426 14.304 8.609 19.806 8.609 19.806 C 8.609 19.806 9.788 14.319 9.856 14.005 C 9.924 13.691 10.088 13.24 10.429 13.044 C 10.747 12.861 11.26 12.936 11.552 13.03 C 11.843 13.124 17.217 14.854 17.217 14.854 C 17.217 14.854 13.038 11.093 12.799 10.878 C 12.559 10.662 12.25 10.295 12.25 9.903" fill-rule="evenodd"></path></svg>
<svg x="0" y="10.885" width="26.783" height="32.409" viewBox="0 0 26.783 32.409" overflow="visible"><path d="M 26.772 21.289 C 26.769 21.251 26.766 21.213 26.762 21.175 C 26.756 21.131 26.749 21.087 26.741 21.043 C 26.734 21.003 26.727 20.962 26.717 20.922 C 26.708 20.881 26.696 20.841 26.685 20.8 C 26.673 20.76 26.662 20.719 26.648 20.68 C 26.635 20.639 26.618 20.599 26.602 20.559 C 26.587 20.521 26.573 20.484 26.556 20.448 C 26.537 20.406 26.516 20.365 26.494 20.324 C 26.477 20.291 26.46 20.257 26.441 20.225 C 26.417 20.184 26.391 20.144 26.365 20.104 C 26.344 20.073 26.324 20.042 26.302 20.012 C 26.275 19.974 26.246 19.938 26.216 19.902 C 26.191 19.87 26.166 19.839 26.139 19.809 C 26.11 19.777 26.08 19.746 26.05 19.715 C 26.018 19.682 25.986 19.651 25.953 19.62 C 25.939 19.608 25.928 19.594 25.914 19.582 L 4.515 0.682 C 4.497 0.667 4.478 0.654 4.46 0.639 C 4.425 0.609 4.389 0.58 4.353 0.553 C 4.318 0.526 4.283 0.501 4.247 0.477 C 4.212 0.453 4.176 0.43 4.14 0.408 C 4.101 0.384 4.062 0.361 4.022 0.339 C 3.986 0.32 3.95 0.301 3.914 0.284 C 3.872 0.263 3.83 0.243 3.786 0.225 C 3.75 0.209 3.713 0.194 3.675 0.18 C 3.631 0.164 3.587 0.148 3.542 0.134 C 3.504 0.121 3.465 0.11 3.427 0.1 C 3.38 0.087 3.334 0.076 3.288 0.066 C 3.249 0.057 3.211 0.05 3.172 0.043 C 3.123 0.035 3.073 0.028 3.024 0.022 C 2.987 0.017 2.949 0.014 2.911 0.011 C 2.859 0.007 2.806 0.004 2.754 0.003 C 2.733 0.002 2.712 0 2.692 0 C 2.676 0 2.66 0.002 2.644 0.002 C 2.592 0.003 2.54 0.006 2.488 0.01 C 2.449 0.013 2.411 0.015 2.373 0.02 C 2.325 0.025 2.278 0.033 2.231 0.04 C 2.19 0.047 2.15 0.054 2.11 0.062 C 2.065 0.072 2.021 0.083 1.977 0.095 C 1.937 0.106 1.896 0.116 1.857 0.128 C 1.813 0.142 1.769 0.158 1.726 0.174 C 1.689 0.188 1.651 0.201 1.614 0.217 C 1.569 0.235 1.526 0.257 1.482 0.278 C 1.449 0.294 1.415 0.31 1.382 0.327 C 1.338 0.351 1.296 0.376 1.254 0.402 C 1.222 0.421 1.19 0.44 1.159 0.461 C 1.12 0.487 1.082 0.515 1.043 0.544 C 1.011 0.568 0.979 0.592 0.948 0.617 C 0.914 0.645 0.882 0.674 0.849 0.703 C 0.816 0.734 0.783 0.764 0.751 0.796 C 0.738 0.809 0.724 0.82 0.711 0.833 C 0.695 0.85 0.681 0.868 0.666 0.886 C 0.635 0.92 0.605 0.954 0.576 0.99 C 0.549 1.022 0.523 1.056 0.498 1.09 C 0.473 1.124 0.448 1.158 0.425 1.194 C 0.4 1.23 0.376 1.268 0.354 1.306 C 0.333 1.34 0.314 1.375 0.295 1.411 C 0.274 1.45 0.254 1.49 0.235 1.531 C 0.218 1.567 0.202 1.604 0.187 1.641 C 0.171 1.682 0.154 1.723 0.14 1.765 C 0.127 1.803 0.115 1.841 0.104 1.879 C 0.091 1.922 0.079 1.965 0.069 2.009 C 0.06 2.047 0.052 2.085 0.045 2.124 C 0.036 2.17 0.029 2.215 0.023 2.261 C 0.018 2.299 0.014 2.336 0.011 2.373 C 0.007 2.422 0.004 2.472 0.003 2.521 C 0.003 2.542 0 2.562 0 2.582 L 0 29.827 C 0 31.253 1.205 32.409 2.692 32.409 C 4.178 32.409 5.383 31.253 5.383 29.827 L 5.383 8.47 L 21.399 22.615 L 21.399 29.827 C 21.399 31.253 22.604 32.409 24.091 32.409 C 25.577 32.409 26.783 31.253 26.783 29.827 L 26.783 21.482 C 26.783 21.466 26.78 21.451 26.78 21.435 C 26.779 21.386 26.776 21.338 26.772 21.289" fill-rule="evenodd"></path></svg>
  </g>
</svg>