<svg xmlns="http://www.w3.org/2000/svg" viewBox="0 0 22.054 27.572" width="22" height="28" fill="currentColor">
  <g transform="translate(10.139 0)"><path d="M 8.478 6.475 C 8.478 6.236 8.701 5.971 8.858 5.837 C 9.015 5.704 11.916 3.237 11.916 3.237 C 11.916 3.237 8.207 4.366 7.994 4.43 C 7.782 4.495 7.454 4.55 7.218 4.421 C 6.997 4.301 6.865 3.987 6.821 3.792 C 6.777 3.598 5.958 0 5.958 0 C 5.958 0 5.141 3.587 5.095 3.793 C 5.048 3.998 4.934 4.293 4.698 4.421 C 4.478 4.541 4.123 4.491 3.921 4.43 C 3.72 4.369 0 3.237 0 3.237 C 0 3.237 2.892 5.696 3.058 5.837 C 3.224 5.978 3.438 6.218 3.438 6.475 C 3.438 6.714 3.215 6.979 3.058 7.113 C 2.901 7.246 0 9.712 0 9.712 C 0 9.712 3.709 8.584 3.921 8.52 C 4.134 8.455 4.462 8.4 4.698 8.529 C 4.918 8.648 5.05 8.963 5.095 9.157 C 5.139 9.352 5.958 12.95 5.958 12.95 C 5.958 12.95 6.774 9.363 6.821 9.157 C 6.868 8.952 6.981 8.657 7.218 8.529 C 7.438 8.409 7.793 8.458 7.995 8.52 C 8.196 8.581 11.916 9.712 11.916 9.712 C 11.916 9.712 9.023 7.253 8.858 7.112 C 8.692 6.972 8.478 6.732 8.478 6.475" fill-rule="evenodd"></path></g>
  <g transform="translate(0 6.473)"><path d="M 17.766 13.86 C 17.764 13.835 17.762 13.81 17.759 13.785 C 17.756 13.757 17.751 13.728 17.745 13.7 C 17.741 13.673 17.736 13.647 17.73 13.621 C 17.724 13.594 17.716 13.568 17.708 13.541 C 17.7 13.515 17.693 13.489 17.684 13.463 C 17.675 13.437 17.664 13.41 17.653 13.384 C 17.644 13.36 17.634 13.336 17.623 13.312 C 17.61 13.285 17.596 13.258 17.582 13.232 C 17.57 13.21 17.559 13.188 17.546 13.167 C 17.531 13.14 17.513 13.114 17.496 13.089 C 17.482 13.068 17.469 13.048 17.454 13.028 C 17.436 13.004 17.417 12.98 17.397 12.957 C 17.381 12.936 17.364 12.916 17.346 12.896 C 17.327 12.875 17.307 12.855 17.287 12.835 C 17.266 12.814 17.245 12.793 17.222 12.773 C 17.214 12.765 17.206 12.757 17.197 12.749 L 2.996 0.444 C 2.984 0.434 2.972 0.426 2.96 0.416 C 2.936 0.397 2.913 0.378 2.888 0.36 C 2.865 0.343 2.842 0.327 2.818 0.311 C 2.795 0.295 2.771 0.28 2.747 0.266 C 2.721 0.25 2.695 0.235 2.669 0.221 C 2.645 0.208 2.622 0.196 2.597 0.185 C 2.569 0.171 2.541 0.158 2.513 0.146 C 2.488 0.136 2.464 0.127 2.439 0.117 C 2.41 0.107 2.38 0.096 2.35 0.087 C 2.325 0.079 2.3 0.072 2.274 0.065 C 2.243 0.057 2.213 0.049 2.182 0.043 C 2.156 0.037 2.131 0.033 2.105 0.028 C 2.072 0.023 2.04 0.018 2.007 0.014 C 1.982 0.011 1.957 0.009 1.932 0.007 C 1.897 0.004 1.862 0.003 1.827 0.002 C 1.813 0.002 1.8 0 1.786 0 C 1.776 0 1.765 0.001 1.754 0.001 C 1.72 0.002 1.685 0.004 1.651 0.006 C 1.625 0.008 1.6 0.01 1.575 0.013 C 1.543 0.016 1.512 0.021 1.481 0.026 C 1.454 0.031 1.427 0.035 1.4 0.041 C 1.37 0.047 1.341 0.054 1.312 0.062 C 1.285 0.069 1.258 0.075 1.232 0.084 C 1.203 0.093 1.174 0.103 1.145 0.113 C 1.121 0.122 1.096 0.131 1.071 0.141 C 1.041 0.153 1.013 0.167 0.984 0.181 C 0.961 0.191 0.939 0.202 0.917 0.213 C 0.888 0.228 0.86 0.245 0.832 0.262 C 0.811 0.274 0.79 0.287 0.769 0.3 C 0.743 0.317 0.718 0.336 0.692 0.354 C 0.671 0.37 0.65 0.385 0.629 0.402 C 0.607 0.42 0.585 0.439 0.563 0.458 C 0.541 0.478 0.519 0.498 0.498 0.518 C 0.49 0.527 0.48 0.534 0.472 0.543 C 0.461 0.554 0.452 0.565 0.442 0.577 C 0.421 0.599 0.401 0.621 0.382 0.644 C 0.364 0.666 0.347 0.687 0.33 0.709 C 0.314 0.732 0.298 0.754 0.282 0.777 C 0.266 0.801 0.25 0.825 0.235 0.85 C 0.221 0.873 0.208 0.895 0.196 0.919 C 0.182 0.944 0.168 0.97 0.156 0.997 C 0.145 1.02 0.134 1.044 0.124 1.068 C 0.113 1.095 0.102 1.122 0.093 1.149 C 0.084 1.174 0.076 1.198 0.069 1.223 C 0.06 1.251 0.053 1.28 0.046 1.308 C 0.04 1.333 0.035 1.358 0.03 1.383 C 0.024 1.413 0.019 1.442 0.015 1.472 C 0.012 1.496 0.009 1.521 0.007 1.545 C 0.005 1.577 0.003 1.609 0.002 1.641 C 0.002 1.655 0 1.668 0 1.681 L 0 19.418 C 0 20.347 0.8 21.099 1.786 21.099 C 2.773 21.099 3.573 20.347 3.573 19.418 L 3.573 5.514 L 14.201 14.723 L 14.201 19.418 C 14.201 20.347 15 21.099 15.987 21.099 C 16.973 21.099 17.773 20.347 17.773 19.418 L 17.773 13.986 C 17.773 13.975 17.772 13.965 17.772 13.955 C 17.771 13.923 17.769 13.891 17.766 13.86" fill-rule="evenodd"></path></g>
</svg>